<svg xmlns="http://www.w3.org/2000/svg" width="29.463" height="29.509" viewBox="0 0 29.463 29.509">
  <path id="home_1_" data-name="home (1)" d="M30.09,13.891,16.37.171a1.006,1.006,0,0,0-1.431,0L1.219,13.891a1.011,1.011,0,0,0,.723,1.726h2.2V27.271a2.109,2.109,0,0,0,2.11,2.11H9.717a1.728,1.728,0,0,0,1.726-1.726V25.176a2.109,2.109,0,0,1,2.11-2.11h4.219a2.109,2.109,0,0,1,2.11,2.11v2.478a1.728,1.728,0,0,0,1.726,1.726H25.03a2.109,2.109,0,0,0,2.11-2.11V15.617h2.228A1.014,1.014,0,0,0,30.09,13.891Z" transform="translate(-0.921 0.128)" fill="#fff"/>
</svg>
