<svg width="210" height="266" viewBox="0 0 210 266" fill="none" xmlns="http://www.w3.org/2000/svg">
<path d="M113.35 161.17C110.575 162.756 107.048 161.969 105.208 159.355C98.8604 150.321 94.8989 139.829 93.693 128.856C93.3419 125.679 95.4697 122.755 98.6002 122.111C110.479 119.665 122.633 118.824 134.736 119.608C137.687 119.799 140.449 121.121 142.45 123.299C144.449 125.478 145.532 128.344 145.471 131.299C145.409 134.256 144.21 137.075 142.122 139.167C133.558 147.755 123.881 155.156 113.349 161.174L113.35 161.17Z" fill="#21D086"/>
<path d="M143.099 74.7853C146.585 74.2565 150.115 75.4093 152.617 77.8946C155.118 80.3779 156.294 83.9019 155.788 87.3897C155.28 90.8776 153.15 93.9211 150.047 95.5922C141.36 100.267 133.773 106.746 127.795 114.591C120.182 114.494 112.572 115.014 105.042 116.15C115.358 105.546 123.385 92.9377 128.632 79.1086C133.231 77.0019 138.1 75.5466 143.098 74.7872L143.099 74.7853Z" fill="#21D086"/>
<path d="M126.497 70.6811C121.177 88.2687 111.268 104.123 97.7871 116.608C96.5137 117.789 94.7603 118.3 93.0512 117.994C91.3442 117.687 89.8784 116.596 89.0958 115.047C86.2043 109.326 84.0806 103.249 82.7841 96.9706C81.1364 88.9923 83.6218 80.7194 89.3941 74.9682C96.0442 68.3458 103.697 62.8144 112.071 58.5773C114.47 57.3631 117.249 57.1432 119.811 57.9617C122.372 58.7782 124.509 60.5719 125.758 62.9515C127.009 65.3311 127.275 68.1062 126.497 70.6802L126.497 70.6811Z" fill="#21D086"/>
<path d="M123.237 14.0599C120.16 16.0482 117.201 18.2163 114.379 20.5535C106.041 31.7494 101.485 45.3078 101.369 59.2636C104.135 57.4763 106.995 55.837 109.933 54.35C111.361 53.6287 112.892 53.1401 114.472 52.9032C119.058 43.0102 125.367 34.0122 133.109 26.3344C134.979 24.4794 135.806 21.8163 135.311 19.2273C134.818 16.6405 133.071 14.4681 130.649 13.4318C128.229 12.3953 125.45 12.6301 123.237 14.06L123.237 14.0599Z" fill="#21D086"/>
<path d="M86.0533 71.6124C89.3657 68.3148 92.9173 65.2688 96.6844 62.498C96.0076 44.7961 102.025 27.4873 113.538 14.0221C115.277 11.9873 115.958 9.25019 115.37 6.63776C114.784 4.02339 112.999 1.84048 110.556 0.744717C108.113 -0.350936 105.295 -0.232512 102.954 1.06623C89.48 8.54368 79.5176 21.0527 75.2491 35.8592C70.9785 50.6636 72.7489 66.5569 80.1711 80.0606C81.6116 76.9153 83.6041 74.0533 86.0533 71.6122V71.6124Z" fill="#21D086"/>
<path d="M140.224 147.513C149.896 149.451 159.872 149.298 169.481 147.065C172.914 146.267 176.523 147.143 179.209 149.425C181.895 151.71 183.342 155.13 183.107 158.647C182.873 162.165 180.986 165.363 178.02 167.271C173.767 170.006 169.151 172.132 164.308 173.589C151.229 166.679 136.871 162.524 122.122 161.385C128.523 157.26 134.576 152.621 140.224 147.513L140.224 147.513Z" fill="#21D086"/>
<path d="M168.279 181.324C170.563 182.741 172.198 184.998 172.833 187.61C173.467 190.222 173.049 192.981 171.669 195.286C170.288 197.594 168.055 199.265 165.453 199.94C156.369 202.296 146.968 203.206 137.602 202.63C129.469 202.129 122.136 197.564 118.1 190.487C114.923 184.92 112.499 178.955 110.887 172.751C110.451 171.071 110.83 169.284 111.909 167.924C112.987 166.566 114.642 165.792 116.378 165.834C134.747 166.295 152.662 171.643 168.279 181.326L168.279 181.324Z" fill="#21D086"/>
<path d="M171.002 202.61C169.659 203.477 168.187 204.124 166.639 204.526C163.451 205.353 160.223 206.011 156.966 206.5C166.277 216.896 178.658 224.058 192.313 226.95C195.976 226.838 199.629 226.512 203.255 225.968C205.859 225.577 208.099 223.916 209.23 221.539C210.364 219.162 210.239 216.376 208.898 214.108C207.559 211.841 205.179 210.387 202.55 210.231C191.665 209.586 180.981 207.005 171.002 202.61L171.002 202.61Z" fill="#21D086"/>
<path d="M137.305 207.353C133.853 207.142 130.467 206.31 127.309 204.904C130.664 219.941 139.839 233.038 152.829 241.328C165.82 249.615 181.563 252.417 196.615 249.123C199.232 248.551 201.425 246.779 202.534 244.34C203.642 241.903 203.539 239.086 202.253 236.736C200.964 234.388 198.646 232.783 195.996 232.406C178.456 229.912 162.499 220.899 151.306 207.168C146.65 207.576 141.972 207.637 137.306 207.348L137.305 207.353Z" fill="#21D086"/>
<path d="M90.6611 122.253C88.1462 121.379 86.0711 119.562 84.8699 117.187C83.201 113.885 81.769 110.469 80.5888 106.962L55.2361 145.97C54.1426 147.652 52.5414 148.944 50.6652 149.659C40.1803 153.657 29.8113 157.957 19.576 162.555C13.7442 165.174 8.79493 169.423 5.32181 174.792C1.84863 180.158 0 186.415 0 192.809V265.331H23.6902V192.809C23.6902 190.981 24.219 189.194 25.2111 187.66C26.2031 186.127 27.6182 184.913 29.2828 184.164C38.9008 179.845 48.6389 175.799 58.4876 172.031C60.3828 171.302 62.4642 171.202 64.4207 171.746L109.847 184.433C108.415 181.021 107.23 177.512 106.3 173.929C105.631 171.353 105.989 168.618 107.298 166.302C104.883 165.616 102.776 164.123 101.333 162.067C94.5244 152.381 90.2769 141.131 88.9822 129.362C88.7072 126.866 89.3016 124.353 90.6617 122.243L90.6611 122.253Z" fill="#1BA56B"/>
</svg>
