<svg id="任务列表_1_" data-name="任务列表 (1)" xmlns="http://www.w3.org/2000/svg" width="34.831" height="28.254" viewBox="0 0 34.831 28.254">
  <path id="路径_45" data-name="路径 45" d="M2.923,2.923,0,2.923A2.923,2.923,0,1,0,2.923,0,2.923,2.923,0,0,0,0,2.923Z" transform="translate(0 0)" fill="#fff"/>
  <path id="路径_46" data-name="路径 46" d="M384.34,22.527H364.367a2.436,2.436,0,1,1,0-4.871H384.34a2.436,2.436,0,1,1,0,4.871Z" transform="translate(-351.945 -17.168)" fill="#fff"/>
  <path id="路径_47" data-name="路径 47" d="M2.923,408.992m-2.923,0a2.923,2.923,0,1,0,2.923-2.923A2.923,2.923,0,0,0,0,408.992Z" transform="translate(0 -394.865)" fill="#fff"/>
  <path id="路径_48" data-name="路径 48" d="M384.34,428.6H364.367a2.436,2.436,0,1,1,0-4.871H384.34a2.436,2.436,0,1,1,0,4.871Z" transform="translate(-351.945 -412.033)" fill="#fff"/>
  <path id="路径_49" data-name="路径 49" d="M2.923,815.061m-2.923,0a2.923,2.923,0,1,0,2.923-2.923A2.923,2.923,0,0,0,0,815.061Z" transform="translate(0 -789.729)" fill="#fff"/>
  <path id="路径_50" data-name="路径 50" d="M384.34,834.665H364.367a2.436,2.436,0,0,1,0-4.871H384.34a2.436,2.436,0,0,1,0,4.871Z" transform="translate(-351.944 -806.897)" fill="#fff"/>
</svg>
