<?xml version="1.0" standalone="no"?><!DOCTYPE svg PUBLIC "-//W3C//DTD SVG 1.1//EN" "http://www.w3.org/Graphics/SVG/1.1/DTD/svg11.dtd"><svg t="1652870080995" class="icon" viewBox="0 0 1024 1024" version="1.1" xmlns="http://www.w3.org/2000/svg" p-id="2982" xmlns:xlink="http://www.w3.org/1999/xlink" width="200" height="200"><defs><style type="text/css"></style></defs><path d="M355.57357025 564.14214326l430.1726818 286.78178787c21.72589302 13.03553581 47.79696465 8.6903572 60.83250046-13.03553582 4.34517861-8.6903572 8.6903572-17.38071443 8.69035722-26.07107163V238.25374795c0-26.07107163-17.38071443-43.45178603-43.45178605-43.45178606-8.6903572 0-17.38071443 4.34517861-26.07107163 8.69035722L355.57357025 490.27410698c-21.72589302 13.03553581-26.07107163 39.10660744-13.03553581 60.83250046l13.03553582 13.03553581zM207.83749771 251.28928375c-26.07107163 0-43.45178603 17.38071443-43.45178604 43.45178605v464.93411063c0 26.07107163 17.38071443 43.45178603 43.45178604 43.45178605s43.45178603-17.38071443 43.45178604-43.45178605V294.7410698c0-26.07107163-17.38071443-43.45178603-43.45178604-43.45178605z" fill="#ffffff" p-id="2983"></path></svg>