<?xml version="1.0" standalone="no"?><!DOCTYPE svg PUBLIC "-//W3C//DTD SVG 1.1//EN" "http://www.w3.org/Graphics/SVG/1.1/DTD/svg11.dtd"><svg t="1652870318820" class="icon" viewBox="0 0 1024 1024" version="1.1" xmlns="http://www.w3.org/2000/svg" p-id="9862" xmlns:xlink="http://www.w3.org/1999/xlink" width="200" height="200"><defs><style type="text/css"></style></defs><path d="M222.15499999 360.19766673l100.49-22.33800001-72.577-72.577-27.913 94.914z" p-id="9863" fill="#ffffff"></path><path d="M447.471 589.687v-156.45c-3.618 3.618-9.745 7.68-18.347 12.169-12.418 6.821-27.009 11.364-42.521 12.665l18.61-25.909c21.492-6.354 40.129-16.502 56.067-29.779-13.981 11.125-5.533 5.595 0.372 0.39h8.738v186.914h-22.921zM646.434 533.231c0 17.886-5.939 32.29-17.766 43.23s-27.767 16.401-47.77 16.401c-17.152 0-29.952-2.543-38.366-7.663v-23.62c12.373 8.038 24.951 12.049 37.786 12.049 12.749 0 23.057-3.533 30.891-10.581s11.742-16.384 11.742-28.058c0-11.657-4.045-20.719-12.22-27.221s-19.661-9.745-34.526-9.745c-11.503 0-21.828 0.512-31.027 1.519l6.741-92.809h85.47v20.309h-65.997l-3.806 51.831 16.674-0.7c19.371 0 34.543 4.813 45.636 14.455 11.008 9.711 16.538 23.211 16.538 40.602z" p-id="9864" fill="#ffffff"></path><path d="M208.95 675.01c14.852 31.472 36.767 63.004 64.601 90.861 129.971 129.97 341.136 130.936 470.312 1.76 129.188-129.188 128.21-340.33999999-2.124-470.674-130.394-130.37-341.547-131.347-470.72200001-2.172l24.13600001 24.13600001c115.864-115.864 305.38-114.875 422.451 2.17199998 117.035 117.035 117.989 306.539 2.124 422.40300001s-305.404 114.875-422.40300001-2.124c-24.257-24.257-43.24-51.735-57.51499999-80.92799999l-30.857 14.56599999z" p-id="9865" fill="#ffffff"></path></svg>