<svg xmlns="http://www.w3.org/2000/svg" width="30.382" height="28.254" viewBox="0 0 30.382 28.254">
  <path id="音乐娱乐" d="M15.191,28.254C6.8,28.254,0,21.929,0,14.127S6.8,0,15.191,0,30.382,6.325,30.382,14.127,23.58,28.254,15.191,28.254Zm6.4-18.833V6.494a.852.852,0,0,0-.987-.829L11.016,7.08a.8.8,0,0,0-.693.787v9.343a2.743,2.743,0,0,0-.962-.173,2.462,2.462,0,1,0,0,4.916A2.534,2.534,0,0,0,11.968,19.5c0-.043,0-.085,0-.128h0V10.842l7.979-1.178v5.994a2.766,2.766,0,0,0-.965-.174,2.462,2.462,0,1,0,2.613,2.458c0-.067,0-.133-.008-.2V9.423Z" fill="#fff"/>
</svg>
